HIERARCHY
ROOT Hips
{
	OFFSET 0.0000 0.0000 0.0000
	CHANNELS 6 Xposition Yposition Zposition Zrotation Xrotation Yrotation
	JOINT Ab
	{
		OFFSET -0.0000 8.1305 -0.0000
		CHANNELS 3 Zrotation Xrotation Yrotation
		JOINT Chest
		{
			OFFSET -0.0000 26.2902 -0.0000
			CHANNELS 3 Zrotation Xrotation Yrotation
			JOINT Neck
			{
				OFFSET -0.0000 26.2902 0.0000
				CHANNELS 3 Zrotation Xrotation Yrotation
				JOINT Head
				{
					OFFSET -0.0000 10.8167 0.0000
					CHANNELS 3 Zrotation Xrotation Yrotation
					End Site
					{
						OFFSET -0.0000 16.7167 0.0000
					}
				}
			}
			JOINT LeftCollar
			{
				OFFSET -0.0000 26.2902 0.0000
				CHANNELS 3 Zrotation Xrotation Yrotation
				JOINT LeftShoulder
				{
					OFFSET 19.6667 -0.0000 0.0000
					CHANNELS 3 Zrotation Xrotation Yrotation
					JOINT LeftElbow
					{
						OFFSET 27.2190 0.0000 0.0000
						CHANNELS 3 Zrotation Xrotation Yrotation
						JOINT LeftWrist
						{
							OFFSET 30.7431 0.0000 0.0000
							CHANNELS 3 Zrotation Xrotation Yrotation
							End Site
							{
								OFFSET 0.0000 -14.7500 0.0000
							}
						}
					}
				}
			}
			JOINT RightCollar
			{
				OFFSET -0.0000 26.2902 0.0000
				CHANNELS 3 Zrotation Xrotation Yrotation
				JOINT RightShoulder
				{
					OFFSET -19.6667 0.0000 0.0000
					CHANNELS 3 Zrotation Xrotation Yrotation
					JOINT RightElbow
					{
						OFFSET -27.2190 0.0000 0.0000
						CHANNELS 3 Zrotation Xrotation Yrotation
						JOINT RightWrist
						{
							OFFSET -30.7431 0.0000 0.0000
							CHANNELS 3 Zrotation Xrotation Yrotation
							End Site
							{
								OFFSET -0.0000 -14.7500 0.0000
							}
						}
					}
				}
			}
		}
	}
	JOINT LeftHip
	{
		OFFSET 11.8000 0.0000 0.0000
		CHANNELS 3 Zrotation Xrotation Yrotation
		JOINT LeftKnee
		{
			OFFSET -0.0000 -39.7832 0.0000
			CHANNELS 3 Zrotation Xrotation Yrotation
			JOINT LeftAnkle
			{
				OFFSET -0.0000 -41.7317 0.0000
				CHANNELS 3 Zrotation Xrotation Yrotation
				End Site
				{
					OFFSET -0.0000 -4.9167 16.7167
				}
			}
		}
	}
	JOINT RightHip
	{
		OFFSET -11.8000 0.0000 0.0000
		CHANNELS 3 Zrotation Xrotation Yrotation
		JOINT RightKnee
		{
			OFFSET -0.0000 -39.7832 0.0000
			CHANNELS 3 Zrotation Xrotation Yrotation
			JOINT RightAnkle
			{
				OFFSET -0.0000 -41.7317 0.0000
				CHANNELS 3 Zrotation Xrotation Yrotation
				End Site
				{
					OFFSET -0.0000 -4.9167 16.7167
				}
			}
		}
	}
}
MOTION
Frames: 19
Frame Time: 0.010000
-6.8648 91.7226 61.0403 355.1481 347.5460 200.5996 359.2426 349.1255 0.9311 2.3462 13.4895 0.7257 349.3255 352.1990 349.6622 10.8282 11.4457 349.3026 339.7930 357.5048 13.8790 321.3423 56.9503 339.2549 12.0007 355.2495 316.3855 89.2607 356.4624 348.6098 26.4377 356.3260 344.4602 39.5054 42.5788 8.9462 333.0251 350.8900 36.8021 269.0564 355.9438 359.4136 347.8434 349.1116 356.8650 357.2760 6.1005 3.6891 350.9114 350.1361 12.1456 350.7875 351.0714 5.9304 12.4911 18.1621 12.2456 345.5336 342.4290 309.6472 
-6.8990 91.6175 60.5103 355.2568 347.7936 200.5313 359.1901 349.1465 0.9265 2.3653 13.5155 0.7217 349.3621 352.2154 349.6715 10.8572 11.4433 349.3074 339.7408 357.5075 13.8264 321.1560 56.5645 339.6945 11.5600 355.4873 316.4862 89.1444 356.5647 348.1782 26.4501 356.3442 344.4623 39.7011 42.4043 8.7211 333.2685 350.9657 37.0661 269.1207 355.9879 359.6145 347.8428 349.0590 356.6113 357.3166 6.2258 3.5094 350.4832 350.3724 12.3491 351.0726 351.3284 5.8135 12.5847 18.7040 12.4145 345.4273 342.0558 309.5379 
-6.9329 91.4995 59.9770 355.3744 348.0560 200.4539 359.1340 349.1542 0.9173 2.3843 13.5678 0.7147 349.3898 352.2282 349.6681 10.9290 11.4412 349.2932 339.7904 357.5232 13.7949 321.0323 56.6184 339.8972 11.4603 355.4913 316.7571 88.9613 356.5076 348.0197 26.4342 356.3185 344.4341 39.8792 42.4844 8.5673 333.3394 350.9396 37.1831 269.2032 355.8624 359.6648 347.8848 349.0720 356.3126 357.3704 6.3207 3.7295 350.1367 350.5812 12.0657 351.3448 351.5492 5.6906 12.7524 19.3418 12.6052 345.2859 341.6290 309.3848 
-6.9603 91.3668 59.4302 355.5073 348.3632 200.3588 359.0925 349.1890 0.9066 2.3894 13.6100 0.7077 349.4272 352.2696 349.6740 10.9905 11.4498 349.2861 339.8266 357.5445 13.7892 321.0126 56.6663 339.9921 11.3318 355.5608 317.1020 88.7657 356.4721 347.7452 26.4342 356.3079 344.4382 40.1089 42.5725 8.3175 333.4648 350.9501 37.3223 269.3627 355.8753 359.8863 347.9974 349.1448 356.1729 357.4391 6.5605 3.5346 349.7792 350.7072 11.9982 351.6765 351.8323 5.4956 12.8900 20.0000 12.5672 345.1836 341.0457 309.4511 
-6.9967 91.2268 58.8828 355.6430 348.6507 200.2719 359.0477 349.1896 0.8928 2.3748 13.6640 0.6977 349.4851 352.2352 349.6762 11.0129 11.5465 349.2755 339.8716 357.5477 13.7799 320.8804 56.6025 340.2061 11.2041 355.6311 317.3820 88.7990 356.4780 347.5980 26.4267 356.3383 344.4045 40.2963 42.6264 8.1604 333.6738 351.0040 37.4593 269.4022 355.8562 0.0919 348.1356 349.2621 355.9886 357.5051 6.8092 3.2739 349.8437 351.1563 12.0923 351.9791 352.0873 5.1837 12.9718 20.6646 12.7719 345.2939 340.2531 309.4096 
-7.0276 91.0700 58.3235 355.7947 348.9584 200.1875 358.9930 349.1800 0.8636 2.3838 13.7117 0.6694 349.5317 352.2983 349.7087 11.0664 11.5605 349.2936 339.8720 357.5627 13.7434 320.6995 56.4018 340.5513 10.9727 355.7750 317.5605 88.9817 356.6070 347.5375 26.4740 356.3174 344.3560 40.3278 42.7724 8.0896 333.8579 351.0523 37.5214 269.4180 355.8520 0.2446 348.3504 349.4442 355.8819 357.5903 7.1863 3.1747 350.5142 351.7384 11.7554 352.2782 352.3105 4.9375 13.1305 21.4203 12.9560 345.1267 339.8177 309.3706 
-7.0733 90.9125 57.7728 355.9041 349.2622 200.0724 358.9368 349.1239 0.8037 2.3073 13.8303 0.6207 349.7439 352.2689 349.8176 10.8830 11.6112 349.4077 339.8692 357.5413 13.7474 320.5874 56.0589 340.8573 10.7134 355.9122 317.7474 88.5601 356.5249 347.0563 26.5314 356.3163 344.4095 40.4581 42.8456 7.8833 334.0914 351.1114 37.6622 269.5959 355.7697 0.5729 348.5674 349.6297 355.7407 357.5849 7.8192 3.3814 352.2554 352.0773 11.8328 352.5103 352.4978 4.5986 13.2656 22.2968 13.2775 345.0116 339.2645 309.3139 
-7.1354 90.7820 57.3282 355.9937 349.5249 199.9352 358.8378 349.1003 0.7655 2.2778 13.8406 0.5993 349.8433 352.4058 349.8819 10.9145 11.5688 349.4534 339.8583 357.5293 13.7716 320.4870 55.9615 341.0949 10.5575 355.9839 318.0410 88.3779 356.5137 346.8314 26.5730 356.2855 344.3962 40.5273 42.9867 7.7585 334.2468 351.1415 37.7109 269.7220 355.7557 0.7132 348.7809 349.8311 355.6726 357.5444 8.3254 3.4281 352.7931 351.7960 12.3616 352.6851 352.6193 4.3777 13.4222 23.1001 13.5044 344.9064 338.8487 309.2670 
-7.1940 90.6627 56.8668 356.0822 349.8091 199.8319 358.7386 349.1062 0.7070 2.2081 13.8206 0.5594 350.0048 352.5743 349.9443 10.9435 11.5131 349.4917 339.8207 357.5177 13.8004 320.4967 55.8790 341.2776 10.4244 356.0605 318.3148 88.4301 356.4820 346.7749 26.6836 356.2678 344.3945 40.6628 43.0159 7.5367 334.4688 351.2178 37.7700 269.7789 355.5712 1.1073 349.0766 350.1393 355.6502 357.4005 8.6812 3.2721 353.2381 351.7455 12.8999 352.8968 352.7781 4.0765 13.4684 23.9350 13.9551 344.8315 338.4100 309.0693 
-7.2556 90.5555 56.4043 356.1540 350.0816 199.7623 358.6238 349.0957 0.6192 2.1033 13.8444 0.4930 350.1645 352.7304 350.0041 11.0314 11.3896 349.5301 339.7355 357.5105 13.8454 320.6287 55.7375 341.3817 10.2361 356.1602 318.5815 88.5512 356.4815 346.6026 26.8518 356.2470 344.3696 40.7335 43.0448 7.3901 334.7062 351.2835 37.8076 269.7914 355.3969 1.5084 349.3842 350.4990 355.6885 357.2037 8.9234 2.8679 353.6847 351.8055 13.5039 353.0924 352.9291 3.7436 13.4854 24.7788 14.1897 344.8845 337.9181 309.0692 
-7.3502 90.4824 55.9807 356.0319 350.2046 199.5486 358.3411 349.0038 0.5595 1.9675 13.9251 0.4771 350.0420 352.8169 350.0539 11.3471 11.2630 349.5621 339.5999 357.4684 14.0380 320.9222 55.6100 341.1749 10.1350 356.1957 318.9782 88.5445 356.4644 346.5532 27.0184 356.2304 344.4187 40.7602 43.0678 7.2767 334.8719 351.3309 37.8170 269.8542 355.3290 1.8352 349.4408 350.8267 355.8496 357.0524 9.0510 2.6638 354.3261 351.8140 13.7030 352.9740 352.8196 3.5643 13.6935 25.8684 14.4074 344.9339 337.4587 308.9743 
-7.4560 90.4280 55.5742 355.8652 350.3243 199.3499 358.0508 348.9418 0.5012 1.7792 14.0293 0.4691 350.0259 352.8144 350.1242 11.5280 11.2119 349.6219 339.4675 357.4407 14.1773 321.2123 55.4077 341.0012 10.0147 356.2708 319.2986 88.6302 356.5072 346.5401 27.1699 356.2058 344.3839 40.8534 43.0128 7.1824 335.0257 351.3453 37.9027 269.9775 355.3424 2.1620 349.4225 351.1826 356.0064 356.9448 9.1466 2.6445 354.7221 351.8062 13.8219 352.7493 352.6447 3.4265 14.0584 27.0658 14.4807 345.0587 336.9122 308.9105 
-7.5647 90.3833 55.1788 355.6930 350.4429 199.1662 357.7712 348.9017 0.4489 1.5682 14.1300 0.4685 350.0305 352.7672 350.1913 11.6567 11.2183 349.6786 339.3492 357.4079 14.2758 321.4755 55.1756 340.8495 9.9290 356.3342 319.6060 88.6186 356.5522 346.5086 27.2747 356.1773 344.2951 40.9539 43.1260 7.2241 335.0974 351.3742 37.7901 270.0708 355.3646 2.3277 349.3947 351.5522 356.1751 356.8467 9.2081 2.7198 355.1381 351.8452 13.8638 352.4857 352.4303 3.2566 14.4749 28.3269 14.4640 345.2715 336.3322 308.9305 
-7.6740 90.3438 54.7959 355.5339 350.5460 198.9900 357.5043 348.8777 0.4228 1.3620 14.1905 0.4925 350.0346 352.6955 350.2530 11.6809 11.2786 349.7376 339.2125 357.3643 14.2980 321.6376 54.9225 340.8928 9.8688 356.3714 319.8003 88.8579 356.6444 346.5917 27.2860 356.1662 344.2130 41.3045 43.1972 7.1154 335.1082 351.3957 37.6310 270.0947 355.3541 2.4414 349.3903 351.9239 356.3102 356.7182 9.2186 2.8645 355.9480 352.0008 13.8721 352.2271 352.1796 2.8259 14.7228 29.6353 14.4137 345.7368 335.7901 309.2966 
-7.7807 90.3092 54.4196 355.4223 350.6643 198.8240 357.3070 348.8815 0.3987 1.1539 14.2089 0.5176 350.0017 352.6174 350.3290 11.6479 11.3716 349.8177 339.0971 357.3377 14.3364 321.7886 54.6569 340.8828 9.7804 356.4396 320.0605 88.7885 356.6594 346.3984 27.2353 356.1530 344.1234 41.7634 43.3329 6.9345 335.0559 351.4088 37.4460 270.1832 355.3636 2.5030 349.4502 352.3076 356.4654 356.5693 9.2023 2.9932 356.3640 352.0184 13.7469 351.9794 351.8670 2.3974 15.0432 31.0344 14.3375 346.2084 335.3703 309.6726 
-7.8894 90.2723 54.0537 355.3142 350.7802 198.6398 357.1292 348.9167 0.3935 0.9407 14.1749 0.5627 349.9237 352.5987 350.4114 11.6478 11.4046 349.9041 338.9970 357.3037 14.3672 321.8996 54.4117 340.8975 9.7176 356.4934 320.3076 88.5389 356.6421 346.1075 27.2554 356.1451 344.1903 42.2576 43.3381 6.4896 335.0746 351.4405 37.3589 270.2358 355.4100 2.5642 349.5179 352.7001 356.6378 356.4083 9.1628 3.0829 356.4873 351.9512 13.6150 351.6950 351.4628 1.8446 15.3754 32.6062 14.3900 346.6847 335.0016 310.0499 
-7.9991 90.2270 53.6879 355.2201 350.9018 198.4575 356.9891 348.9465 0.3865 0.6827 14.1506 0.5983 349.9344 352.5831 350.5170 11.5647 11.4078 350.0190 338.9269 357.2942 14.3848 321.9633 54.1115 340.9585 9.6478 356.5446 320.5198 88.0110 356.5912 345.6410 27.2002 356.1506 344.1668 42.8086 43.4366 6.1737 335.0454 351.4600 37.2080 270.3855 355.2530 2.5311 349.5949 353.1312 356.8781 356.2601 9.0721 3.0405 356.6761 351.8897 13.5883 351.3829 351.0271 1.4784 15.9115 34.2058 14.0534 347.1606 334.6995 310.5541 
-8.1104 90.1723 53.3250 355.1385 351.0385 198.2732 356.8661 348.9807 0.3959 0.4608 14.1383 0.6427 349.8907 352.5907 350.6484 11.4557 11.3709 350.1686 338.8723 357.2869 14.4055 322.0300 53.9211 340.9628 9.6610 356.5467 320.7182 87.4547 356.5460 345.1877 27.1321 356.1595 344.1865 43.3432 43.5192 5.8283 335.0451 351.4761 37.0802 270.3372 355.2666 2.6704 349.6707 353.5917 357.0692 356.1190 8.9445 2.9911 356.9261 351.8367 13.6393 351.0440 350.5633 1.0361 16.4503 35.8485 13.7981 347.6854 334.5541 311.1362 
-8.2255 90.1082 52.9523 355.0383 351.2305 198.0541 356.7480 349.0515 0.4178 0.2477 14.1571 0.7035 349.7885 352.6808 350.7764 11.3753 11.2466 350.3162 338.7994 357.2876 14.3375 321.9195 53.5886 341.2390 9.6235 356.5644 320.7745 87.0561 356.4590 344.6904 27.0476 356.1860 344.2124 43.8488 43.6784 5.5200 335.0233 351.4988 36.9225 270.2894 355.3436 2.8330 349.7394 354.1476 357.2599 355.9737 8.7603 2.9718 357.1599 351.7821 13.7312 350.6768 350.1135 0.6426 17.0506 37.5350 13.5104 348.2540 334.5003 311.7332 
